<?xml version="1.0" encoding="UTF-8" standalone="no"?>
<!DOCTYPE svg PUBLIC "-//W3C//DTD SVG 1.1//EN" "http://www.w3.org/Graphics/SVG/1.1/DTD/svg11.dtd">
<svg width="100%" height="100%" viewBox="0 0 456 89" version="1.1" xmlns="http://www.w3.org/2000/svg" xmlns:xlink="http://www.w3.org/1999/xlink" xml:space="preserve" xmlns:serif="http://www.serif.com/" style="fill-rule:evenodd;clip-rule:evenodd;stroke-linejoin:round;stroke-miterlimit:2;">
    <g transform="matrix(1,0,0,1,-95.8662,-264.867)">
        <g transform="matrix(1.21473,0,0,0.861762,-22.567,34.3372)">
            <path d="M177.146,367.768L135.117,367.768C129.696,367.768 124.684,366.64 120.079,364.384C115.474,362.129 111.507,358.838 108.176,354.51C104.845,350.183 102.232,344.936 100.338,338.767C98.444,332.599 97.497,325.556 97.497,317.639C97.497,310.274 98.46,303.507 100.387,297.338C102.314,291.17 104.943,285.876 108.274,281.457C111.605,277.038 115.523,273.609 120.03,271.169C124.537,268.729 129.37,267.51 134.529,267.51C139.689,267.51 144.522,268.752 149.029,271.238C153.535,273.724 157.454,277.176 160.785,281.595C164.116,286.015 166.745,291.285 168.672,297.408C170.598,303.53 171.562,310.274 171.562,317.639C171.562,321.137 171.284,324.544 170.729,327.858C170.174,331.172 169.341,334.302 168.231,337.248C167.12,340.194 165.684,342.841 163.92,345.189C162.157,347.537 160.099,349.447 157.748,350.92L157.748,351.196L177.146,351.196L177.146,367.768ZM113.368,317.639C113.368,321.874 113.923,325.832 115.034,329.515C116.144,333.198 117.662,336.397 119.589,339.113C121.516,341.829 123.753,343.969 126.3,345.534C128.847,347.099 131.59,347.882 134.529,347.882C137.468,347.882 140.212,347.099 142.759,345.534C145.306,343.969 147.543,341.829 149.47,339.113C151.396,336.397 152.915,333.198 154.025,329.515C155.136,325.832 155.691,321.874 155.691,317.639C155.691,313.404 155.136,309.445 154.025,305.762C152.915,302.08 151.396,298.881 149.47,296.165C147.543,293.449 145.306,291.308 142.759,289.743C140.212,288.178 137.468,287.396 134.529,287.396C131.59,287.396 128.847,288.178 126.3,289.743C123.753,291.308 121.516,293.449 119.589,296.165C117.662,298.881 116.144,302.08 115.034,305.762C113.923,309.445 113.368,313.404 113.368,317.639Z" style="fill:rgb(31,135,216);"/>
            <path d="M230.294,336.351C230.294,341.184 229.777,345.634 228.743,349.7C227.709,353.766 226.171,357.295 224.13,360.288C222.089,363.28 219.545,365.62 216.497,367.307C213.449,368.995 209.938,369.839 205.965,369.839C201.938,369.839 198.4,368.995 195.352,367.307C192.304,365.62 189.759,363.28 187.718,360.288C185.677,357.295 184.14,353.766 183.106,349.7C182.072,345.634 181.555,341.184 181.555,336.351L181.555,286.291L194.291,286.291L194.291,335.66C194.291,338.192 194.576,340.532 195.148,342.68C195.719,344.828 196.522,346.689 197.556,348.262C198.59,349.834 199.828,351.062 201.271,351.944C202.713,352.826 204.278,353.268 205.965,353.268C207.652,353.268 209.204,352.826 210.619,351.944C212.034,351.062 213.258,349.834 214.293,348.262C215.327,346.689 216.129,344.828 216.701,342.68C217.272,340.532 217.558,338.192 217.558,335.66L217.558,286.291L230.294,286.291L230.294,336.351Z" style="fill:rgb(31,135,216);"/>
            <path d="M259.44,286.291L269.972,286.291L295.117,367.768L280.748,367.768L275.768,350.506L253.317,350.506L248.5,367.768L234.458,367.768L259.44,286.291ZM264.338,309.997L257.317,335.315L271.441,335.315L264.338,309.997Z" style="fill:rgb(31,135,216);"/>
            <path d="M299.281,286.291L316.588,286.291L341.162,342.91L341.326,342.91L341.326,286.291L354.062,286.291L354.062,367.768L337.407,367.768L312.18,309.767L312.017,309.767L312.017,367.768L299.281,367.768L299.281,286.291Z" style="fill:rgb(31,135,216);"/>
            <path d="M375.37,302.172L358.878,302.172L358.878,286.291L404.597,286.291L404.597,302.172L388.106,302.172L388.106,367.768L375.37,367.768L375.37,302.172Z" style="fill:rgb(31,135,216);"/>
            <path d="M403.732,269.995L421.17,269.995L438.315,334.072L438.511,334.072L455.949,269.995L472.31,269.995L443.703,367.768L431.457,367.768L403.732,269.995Z" style="fill:rgb(234,158,69);"/>
        </g>
    </g>
</svg>
